<svg width="51" height="43" viewBox="0 0 51 43" fill="none" xmlns="http://www.w3.org/2000/svg">
<g clip-path="url(#clip0_56002_291)">
<rect width="51" height="43" rx="7" fill="url(#paint0_linear_56002_291)"/>
<path d="M28.0295 31.5383C27.6955 31.1731 27.5316 30.7286 27.5377 30.2048C27.5449 29.6809 27.7104 29.232 28.0344 28.8579L32.6098 23.5741L14.2726 23.8218C13.8067 23.8281 13.4134 23.656 13.0929 23.3054C12.7734 22.956 12.6102 22.5195 12.6031 21.9959C12.596 21.4722 12.7474 21.0309 13.0573 20.6718C13.3683 20.3139 13.7567 20.1318 14.2227 20.1255L32.5598 19.8777L27.8016 14.6738C27.4677 14.3086 27.2973 13.8716 27.2904 13.3627C27.2835 12.8551 27.4421 12.4142 27.766 12.0402C28.0899 11.6661 28.4783 11.476 28.9311 11.4699C29.3828 11.4638 29.7756 11.6433 30.1095 12.0085L37.7478 20.3622C37.9147 20.5448 38.0342 20.7434 38.1062 20.9581C38.1771 21.1728 38.2142 21.4034 38.2175 21.6498C38.2208 21.8962 38.19 22.1277 38.1249 22.3442C38.0587 22.5608 37.9447 22.7626 37.7827 22.9496L30.3325 31.5534C30.0356 31.8963 29.6612 32.0708 29.2095 32.0769C28.7567 32.083 28.3634 31.9035 28.0295 31.5383Z" fill="black"/>
</g>
<defs>
<linearGradient id="paint0_linear_56002_291" x1="25.5" y1="0" x2="25.5" y2="43" gradientUnits="userSpaceOnUse">
<stop stop-color="white"/>
<stop offset="1" stop-color="#C8C8C8"/>
</linearGradient>
<clipPath id="clip0_56002_291">
<rect width="51" height="43" fill="white"/>
</clipPath>
</defs>
</svg>
