<svg width="18" height="20" viewBox="0 0 18 20" fill="none" xmlns="http://www.w3.org/2000/svg">
<path d="M6.8 0V7.32C6.8 7.77333 6.86667 8.09333 7 8.28C7.13333 8.44 7.48 8.52 8.04 8.52H10.28V11.52H5.16C2.25333 11.52 0.8 10.0933 0.8 7.24V4.44C0.8 2.68 1.24 1.50667 2.12 0.919999C3.02667 0.306666 4.58667 0 6.8 0ZM6.88 13.68V15.8C6.88 16.2533 6.94667 16.5733 7.08 16.76C7.21333 16.92 7.56 17 8.12 17H10.28V20H5.24C2.33333 20 0.88 18.5733 0.88 15.72V14.52C0.88 14.12 0.92 13.8933 1 13.84C1.10667 13.7867 1.17333 13.76 1.2 13.76C1.22667 13.7333 1.29333 13.72 1.4 13.72C1.53333 13.6933 1.61333 13.68 1.64 13.68C3.4 13.68 5.14667 13.68 6.88 13.68ZM11.48 8.52H13.12C16.0267 8.52 17.48 9.94667 17.48 12.8V15.56C17.48 17.32 17.0267 18.5067 16.12 19.12C15.24 19.7067 13.6933 20 11.48 20V8.52ZM8 0H13.04C15.9467 0 17.4 1.42667 17.4 4.28V6.36C15.6133 6.36 14.2533 6.36 13.32 6.36C12.3867 6.36 11.9067 6.36 11.88 6.36C11.8533 6.33333 11.8 6.32 11.72 6.32C11.6667 6.29333 11.6267 6.26667 11.6 6.24C11.5733 6.21333 11.5467 6.18667 11.52 6.16C11.4933 6.10667 11.48 6.05333 11.48 6C11.4267 5.78667 11.4 5.62667 11.4 5.52V4.2C11.4 3.74667 11.3333 3.44 11.2 3.28C11.0667 3.09333 10.72 3 10.16 3H8V0Z" fill="white"/>
</svg>
